REM DIRINDEX 1\2,1\3
REM DIRNAME cjc039,folder01,folder02
TITLE ""
FILE "2641-2660.mp3" MP3
  TRACK 01 AUDIO
    TITLE "0:"
    INDEX 01 00:00:00
  TRACK 02 AUDIO
    TITLE "2:cjc039_4281"
    INDEX 01 00:00:27
  TRACK 03 AUDIO
    TITLE "0:"
    INDEX 01 00:01:40
  TRACK 04 AUDIO
    TITLE "3:cjc039_4282"
    INDEX 01 00:02:22
  TRACK 05 AUDIO
    TITLE "0:"
    INDEX 01 00:05:40
  TRACK 06 AUDIO
    TITLE "2:cjc039_4283"
    INDEX 01 00:07:07
  TRACK 07 AUDIO
    TITLE "0:"
    INDEX 01 00:08:50
  TRACK 08 AUDIO
    TITLE "3:cjc039_4284"
    INDEX 01 00:09:24
  TRACK 09 AUDIO
    TITLE "0:"
    INDEX 01 00:13:53
  TRACK 10 AUDIO
    TITLE "2:cjc039_4285"
    INDEX 01 00:15:34
  TRACK 11 AUDIO
    TITLE "0:"
    INDEX 01 00:16:34
  TRACK 12 AUDIO
    TITLE "3:cjc039_4286"
    INDEX 01 00:17:12
  TRACK 13 AUDIO
    TITLE "0:"
    INDEX 01 00:20:28
  TRACK 14 AUDIO
    TITLE "2:cjc039_4287"
    INDEX 01 00:22:05
  TRACK 15 AUDIO
    TITLE "0:"
    INDEX 01 00:23:38
  TRACK 16 AUDIO
    TITLE "3:cjc039_4288"
    INDEX 01 00:24:16
  TRACK 17 AUDIO
    TITLE "0:"
    INDEX 01 00:28:10
  TRACK 18 AUDIO
    TITLE "2:cjc039_4289"
    INDEX 01 00:29:60
  TRACK 19 AUDIO
    TITLE "0:"
    INDEX 01 00:30:65
  TRACK 20 AUDIO
    TITLE "3:cjc039_4290"
    INDEX 01 00:31:43
  TRACK 21 AUDIO
    TITLE "0:"
    INDEX 01 00:34:67
  TRACK 22 AUDIO
    TITLE "2:cjc039_4291"
    INDEX 01 00:36:36
  TRACK 23 AUDIO
    TITLE "0:"
    INDEX 01 00:37:44
  TRACK 24 AUDIO
    TITLE "3:cjc039_4292"
    INDEX 01 00:38:22
  TRACK 25 AUDIO
    TITLE "0:"
    INDEX 01 00:41:67
  TRACK 26 AUDIO
    TITLE "2:cjc039_4293"
    INDEX 01 00:43:44
  TRACK 27 AUDIO
    TITLE "0:"
    INDEX 01 00:44:58
  TRACK 28 AUDIO
    TITLE "3:cjc039_4294"
    INDEX 01 00:45:30
  TRACK 29 AUDIO
    TITLE "0:"
    INDEX 01 00:49:23
  TRACK 30 AUDIO
    TITLE "2:cjc039_4295"
    INDEX 01 00:51:03
  TRACK 31 AUDIO
    TITLE "0:"
    INDEX 01 00:52:22
  TRACK 32 AUDIO
    TITLE "3:cjc039_4296"
    INDEX 01 00:53:02
  TRACK 33 AUDIO
    TITLE "0:"
    INDEX 01 00:56:65
  TRACK 34 AUDIO
    TITLE "2:cjc039_4297"
    INDEX 01 00:58:42
  TRACK 35 AUDIO
    TITLE "0:"
    INDEX 01 00:59:61
  TRACK 36 AUDIO
    TITLE "3:cjc039_4298"
    INDEX 01 01:00:43
  TRACK 37 AUDIO
    TITLE "0:"
    INDEX 01 01:03:71
  TRACK 38 AUDIO
    TITLE "2:cjc039_4299"
    INDEX 01 01:05:48
  TRACK 39 AUDIO
    TITLE "0:"
    INDEX 01 01:06:73
  TRACK 40 AUDIO
    TITLE "3:cjc039_4300"
    INDEX 01 01:07:53
  TRACK 41 AUDIO
    TITLE "0:"
    INDEX 01 01:11:56
  TRACK 42 AUDIO
    TITLE "2:cjc039_4301"
    INDEX 01 01:13:34
  TRACK 43 AUDIO
    TITLE "0:"
    INDEX 01 01:14:61
  TRACK 44 AUDIO
    TITLE "3:cjc039_4302"
    INDEX 01 01:15:39
  TRACK 45 AUDIO
    TITLE "0:"
    INDEX 01 01:18:56
  TRACK 46 AUDIO
    TITLE "2:cjc039_4303"
    INDEX 01 01:20:32
  TRACK 47 AUDIO
    TITLE "0:"
    INDEX 01 01:21:70
  TRACK 48 AUDIO
    TITLE "3:cjc039_4304"
    INDEX 01 01:22:50
  TRACK 49 AUDIO
    TITLE "0:"
    INDEX 01 01:25:62
  TRACK 50 AUDIO
    TITLE "2:cjc039_4305"
    INDEX 01 01:27:38
  TRACK 51 AUDIO
    TITLE "0:"
    INDEX 01 01:28:43
  TRACK 52 AUDIO
    TITLE "3:cjc039_4306"
    INDEX 01 01:29:25
  TRACK 53 AUDIO
    TITLE "0:"
    INDEX 01 01:32:74
  TRACK 54 AUDIO
    TITLE "2:cjc039_4307"
    INDEX 01 01:34:52
  TRACK 55 AUDIO
    TITLE "0:"
    INDEX 01 01:36:00
  TRACK 56 AUDIO
    TITLE "3:cjc039_4308"
    INDEX 01 01:36:52
  TRACK 57 AUDIO
    TITLE "0:"
    INDEX 01 01:40:58
  TRACK 58 AUDIO
    TITLE "2:cjc039_4309"
    INDEX 01 01:42:39
  TRACK 59 AUDIO
    TITLE "0:"
    INDEX 01 01:43:43
  TRACK 60 AUDIO
    TITLE "3:cjc039_4310"
    INDEX 01 01:44:24
  TRACK 61 AUDIO
    TITLE "0:"
    INDEX 01 01:47:62
  TRACK 62 AUDIO
    TITLE "2:cjc039_4311"
    INDEX 01 01:49:39
  TRACK 63 AUDIO
    TITLE "0:"
    INDEX 01 01:50:58
  TRACK 64 AUDIO
    TITLE "3:cjc039_4312"
    INDEX 01 01:51:40
  TRACK 65 AUDIO
    TITLE "0:"
    INDEX 01 01:54:41
  TRACK 66 AUDIO
    TITLE "2:cjc039_4313"
    INDEX 01 01:56:16
  TRACK 67 AUDIO
    TITLE "0:"
    INDEX 01 01:57:35
  TRACK 68 AUDIO
    TITLE "3:cjc039_4314"
    INDEX 01 01:58:13
  TRACK 69 AUDIO
    TITLE "0:"
    INDEX 01 02:01:68
  TRACK 70 AUDIO
    TITLE "2:cjc039_4315"
    INDEX 01 02:03:41
  TRACK 71 AUDIO
    TITLE "0:"
    INDEX 01 02:05:11
  TRACK 72 AUDIO
    TITLE "3:cjc039_4316"
    INDEX 01 02:05:54
  TRACK 73 AUDIO
    TITLE "0:"
    INDEX 01 02:09:26
  TRACK 74 AUDIO
    TITLE "2:cjc039_4317"
    INDEX 01 02:11:02
  TRACK 75 AUDIO
    TITLE "0:"
    INDEX 01 02:12:11
  TRACK 76 AUDIO
    TITLE "3:cjc039_4318"
    INDEX 01 02:12:66
  TRACK 77 AUDIO
    TITLE "0:"
    INDEX 01 02:16:32
  TRACK 78 AUDIO
    TITLE "2:cjc039_4319"
    INDEX 01 02:18:12
  TRACK 79 AUDIO
    TITLE "0:"
    INDEX 01 02:19:44
  TRACK 80 AUDIO
    TITLE "3:cjc039_4320"
    INDEX 01 02:20:18
  TRACK 81 AUDIO
    TITLE "0:"
    INDEX 01 02:25:74
